<?xml version="1.0" encoding="UTF-8" standalone="no"?><!DOCTYPE svg PUBLIC "-//W3C//DTD SVG 1.1//EN" "http://www.w3.org/Graphics/SVG/1.1/DTD/svg11.dtd"><svg width="100%" height="100%" viewBox="0 0 768 768" version="1.1" xmlns="http://www.w3.org/2000/svg" xmlns:xlink="http://www.w3.org/1999/xlink" xml:space="preserve" xmlns:serif="http://www.serif.com/" style="fill-rule:evenodd;clip-rule:evenodd;stroke-linecap:round;stroke-linejoin:round;stroke-miterlimit:1.5;"><g><g><path d="M340.569,134.385l0,149.097c0,41.144 -33.404,74.549 -74.549,74.549l-149.097,0c-41.144,0 -74.549,-33.404 -74.549,-74.549l0,-149.097c0,-41.144 33.404,-74.549 74.549,-74.549l149.097,0c41.144,0 74.549,33.404 74.549,74.549Z" style="stroke:#000;stroke-width:10px;"/><g id="Layer_5"><path d="M238.919,289.229l-94.894,0c-6.022,0 -10.949,-4.927 -10.949,-10.949l0,-138.691c0,-6.022 4.927,-10.949 10.949,-10.949l65.696,0l40.147,40.147l0,109.493c0,6.022 -4.927,10.949 -10.949,10.949Z" style="fill:#3086f6;fill-rule:nonzero;"/><path d="M209.721,128.639l40.147,40.147l-40.147,0l0,-40.147Z" style="fill:#0c67d6;fill-rule:nonzero;"/><path d="M224.32,199.81l-65.696,0l0,-9.124l65.696,0l0,9.124Zm0,12.774l-65.696,0l0,9.124l65.696,0l0,-9.124Zm-18.249,21.899l-47.447,0l0,9.124l47.447,0l0,-9.124Z" style="fill:#fdffff;fill-rule:nonzero;"/></g></g><g><path d="M725.625,303.407l0,109.248c0,30.148 -24.476,54.624 -54.624,54.624l-109.248,0c-30.148,0 -54.624,-24.476 -54.624,-54.624l0,-109.248c0,-30.148 24.476,-54.624 54.624,-54.624l109.248,0c30.148,0 54.624,24.476 54.624,54.624Z" style="stroke:#000;stroke-width:10px;"/><clipPath id="_clip1"><rect x="562.463" y="317.596" width="107.827" height="80.87"/></clipPath><g clip-path="url(#_clip1)"><path d="M569.815,398.466l17.154,0l0,-41.66l-24.506,-18.38l0,52.688c0,4.068 3.296,7.352 7.352,7.352" style="fill:#4285f4;fill-rule:nonzero;"/><path d="M645.784,398.466l17.154,0c4.068,0 7.352,-3.296 7.352,-7.352l0,-52.688l-24.506,18.38" style="fill:#34a853;fill-rule:nonzero;"/><path d="M645.784,324.948l0,31.858l24.506,-18.38l0,-9.802c0,-9.092 -10.378,-14.275 -17.644,-8.822" style="fill:#fbbc04;fill-rule:nonzero;"/><path d="M586.969,356.806l0,-31.858l29.407,22.055l29.407,-22.055l0,31.858l-29.407,22.055" style="fill:#ea4335;fill-rule:nonzero;"/><path d="M562.463,328.624l0,9.802l24.506,18.38l0,-31.858l-6.862,-5.146c-7.278,-5.453 -17.644,-0.27 -17.644,8.822" style="fill:#c5221f;fill-rule:nonzero;"/></g></g><g><path d="M340.569,570.483l0,91.787c0,25.329 -20.564,45.893 -45.893,45.893l-91.787,0c-25.329,0 -45.893,-20.564 -45.893,-45.893l0,-91.787c0,-25.329 20.564,-45.893 45.893,-45.893l91.787,0c25.329,0 45.893,20.564 45.893,45.893Z" style="stroke:#000;stroke-width:10px;"/><path d="M260.017,566.946l24.715,24.715l-12.358,2.247l-12.358,-2.247l-2.247,-12.358l2.247,-12.358Z" style="fill:#188038;fill-rule:nonzero;"/><path d="M260.017,591.661l0,-24.715l-40.443,0c-3.724,0 -6.741,3.016 -6.741,6.741l0,85.38c0,3.724 3.016,6.741 6.741,6.741l58.418,0c3.724,0 6.741,-3.016 6.741,-6.741l0,-67.405l-24.715,0Z" style="fill:#34a853;fill-rule:nonzero;"/><path d="M226.314,605.142l0,32.579l44.937,0l0,-32.579l-44.937,0Zm19.66,26.962l-14.043,0l0,-7.864l14.043,0l0,7.864Zm0,-13.481l-14.043,0l0,-7.864l14.043,0l0,7.864Zm19.66,13.481l-14.043,0l0,-7.864l14.043,0l0,7.864Zm0,-13.481l-14.043,0l0,-7.864l14.043,0l0,7.864Z" style="fill:#fff;fill-rule:nonzero;"/></g></g></svg>