<?xml version="1.0" encoding="UTF-8" standalone="no"?><!DOCTYPE svg PUBLIC "-//W3C//DTD SVG 1.1//EN" "http://www.w3.org/Graphics/SVG/1.1/DTD/svg11.dtd"><svg width="100%" height="100%" viewBox="0 0 768 768" version="1.1" xmlns="http://www.w3.org/2000/svg" xmlns:xlink="http://www.w3.org/1999/xlink" xml:space="preserve" xmlns:serif="http://www.serif.com/" style="fill-rule:evenodd;clip-rule:evenodd;stroke-linejoin:round;stroke-miterlimit:2;"><rect id="Artboard1" x="0" y="0" width="768" height="768" style="fill:none;"/><g id="Artboard11" serif:id="Artboard1"><path d="M659.753,511.203c0,0 -102.702,110.39 -173.434,186.416c-36.164,38.87 -96.99,41.065 -135.861,4.901c-59.487,-55.344 -135.091,-125.683 -135.091,-125.683l238.914,-256.797l205.472,191.163Zm-222.193,-208.029l-232.088,249.46c0,0 -75.604,-70.339 -135.091,-125.683c-38.87,-36.164 -41.065,-96.99 -4.901,-135.861c68.636,-73.773 166.608,-179.079 166.608,-179.079l205.472,191.163Z" style="fill:url(#_Linear1);"/><path d="M292.921,506.119c-5.512,3.957 -37.996,10.753 -53.548,19.371c-2.789,1.546 -5.497,1.399 -5.997,1.371c-2.653,-0.144 -2.62,-0.469 -4.915,-1.958c-0.007,-0.005 -1.296,-2.194 -1.303,-2.213c-0.931,-2.667 -0.185,-5.384 -0.064,-5.826c0.279,-1.018 0.697,-2 1.234,-2.894c9.164,-15.245 16.524,-47.284 20.487,-52.331c-0.948,-0.713 -63.942,-63.144 -74.934,-73.598c-2.2,-2.092 -2.858,-4.491 -2.979,-4.93c-0.657,-2.393 -0.336,-2.419 0.321,-4.723c0.002,-0.008 1.566,-1.579 1.582,-1.589c2.075,-1.326 4.632,-1.118 5.052,-1.084c1.752,0.142 1.751,0.203 3.424,0.845c12.474,4.782 93.749,28.065 105.623,34.227c29.505,-25.528 82.512,-88.68 127.343,-138.897c-1.229,-0.953 -141.627,-100.612 -192.441,-118.619c-5.494,-1.947 -8.61,-5.508 -9.185,-6.167c-3.05,-3.487 -2.573,-3.781 -3.383,-8.189c-0.002,-0.008 1.372,-3.873 1.383,-3.89c2.448,-3.897 7.02,-5.751 7.763,-6.052c0.485,-0.197 2.779,-1.127 6.423,-1.55c21.87,-2.54 281.496,56.77 285.396,58.554c10.529,-8.117 21.27,-20.582 31.885,-28.588c75.249,-56.753 116.592,-74.167 130.199,-59.956c13.608,14.211 -0.979,64.798 -65.946,132.289c-9.286,9.646 -16.894,16.19 -25.528,26.435c2.123,4.718 44.263,205.791 42.721,274.814c-0.128,5.742 -2.566,9.62 -3.016,10.337c-2.386,3.796 -2.821,3.414 -6.805,5.302c-0.008,0.004 -4.163,-0.333 -4.183,-0.339c-4.528,-1.355 -7.764,-5.257 -8.29,-5.89c-0.343,-0.414 -1.967,-2.372 -3.532,-5.747c-7.542,-16.268 -108.449,-197.477 -109.472,-198.922c-51.144,41.821 -111.622,107.414 -143.919,131.815c6.345,13.606 12.932,92.109 19.254,111.442c0.931,2.849 0.325,5.179 0.214,5.605c-0.605,2.324 -0.907,2.184 -2.649,3.774c-0.006,0.006 -2.196,0.529 -2.216,0.529c-2.527,0.062 -4.722,-1.396 -5.082,-1.635c-1.504,-0.999 -1.472,-1.049 -2.655,-2.424c-6.05,-7.033 -56.613,-76.288 -58.262,-78.698Z"/><path d="M275.363,560.337c-5.126,1.676 -9.938,3.514 -13.607,5.547c-14.37,7.963 -28.312,7.231 -30.888,7.091c-14.578,-0.793 -14.923,-1.145 -27.534,-9.324l-14.55,-15.114c-1.017,-1.702 -5.2,-10.55 -5.229,-10.633c-5.313,-15.229 -1.689,-30.732 -0.997,-33.255c1.397,-5.094 3.501,-9.998 6.19,-14.471c2.582,-4.295 4.87,-10.242 6.916,-16.381c-20.4,-19.963 -46.735,-45.755 -53.61,-52.294c-11.65,-11.08 -15.047,-23.841 -15.685,-26.166c-4.111,-14.972 -3.667,-15.198 0.443,-29.613l11.469,-19.703c1.48,-1.51 9.577,-8.086 9.661,-8.139c13.907,-8.885 30.837,-8.425 33.649,-8.197c8.272,0.671 8.324,0.726 16.22,3.754c8.542,3.275 47.834,15.068 77.461,24.637c19.976,-20.436 45.098,-49.225 70.231,-77.98c-42.83,-29.335 -108.4,-72.411 -139.123,-83.298c-17.095,-6.058 -26.724,-17.238 -28.516,-19.287c-11.482,-13.124 -10.996,-13.655 -14.046,-30.247l1.874,-23.728c0.79,-2.256 5.788,-13.021 5.822,-13.074c9.506,-15.134 26.635,-23.117 29.518,-24.286c1.397,-0.566 7.959,-3.407 18.446,-4.625c7.869,-0.914 41.649,3.192 84.867,11.765c62.088,12.316 146.925,31.763 192.679,42.647c5.755,-5.527 11.527,-11.123 17.255,-15.443c61.522,-46.4 104.862,-68.138 130.047,-72.601c29.024,-5.143 48.493,4.186 61.314,17.575c11.497,12.006 20.801,32.121 16.318,61.088c-4.503,29.097 -27.211,77.889 -82.348,135.168c-3.186,3.31 -6.167,6.211 -9.065,9.038c13.625,64.578 40.425,204.455 39.157,261.216c-0.421,18.853 -8.608,31.529 -10.087,33.882c-9.53,15.161 -10.215,14.918 -26.129,22.458l-23.418,4.305c-2.321,-0.178 -13.719,-2.116 -13.778,-2.134c-16.434,-4.918 -28.687,-18.349 -30.595,-20.649c-0.949,-1.144 -5.561,-6.479 -9.886,-15.809c-4.878,-10.523 -50.246,-92.744 -79.81,-146.024c-28.939,26.912 -57.771,55.811 -80.637,76.628c0.117,0.719 0.233,1.445 0.347,2.177c4.122,26.466 7.711,65.413 11.755,77.779c5.249,16.053 1.636,29.191 1.011,31.594c-4.048,15.548 -4.553,15.608 -16.203,26.244l-20.122,10.743c-1.987,0.491 -11.998,1.845 -12.095,1.847c-15.675,0.385 -29.537,-7.852 -31.771,-9.336c-6.778,-4.503 -6.777,-4.575 -12.109,-10.773c-3.816,-4.436 -24.491,-32.382 -40.811,-54.598Zm17.557,-54.218c1.649,2.41 52.212,71.665 58.262,78.698c1.183,1.375 1.151,1.425 2.655,2.424c0.36,0.239 2.555,1.697 5.082,1.635c0.02,-0 2.21,-0.524 2.216,-0.529c1.742,-1.59 2.043,-1.45 2.649,-3.774c0.111,-0.426 0.718,-2.757 -0.214,-5.605c-6.322,-19.333 -12.909,-97.836 -19.254,-111.442c32.297,-24.401 92.775,-89.994 143.919,-131.815c1.023,1.445 101.93,182.654 109.472,198.922c1.565,3.376 3.189,5.333 3.532,5.747c0.526,0.634 3.762,4.535 8.29,5.89c0.019,0.006 4.175,0.342 4.183,0.339c3.985,-1.888 4.419,-1.506 6.805,-5.302c0.451,-0.717 2.888,-4.594 3.016,-10.337c1.542,-69.023 -40.598,-270.096 -42.721,-274.814c8.634,-10.245 16.243,-16.789 25.528,-26.435c64.967,-67.49 79.554,-118.078 65.946,-132.289c-13.608,-14.211 -54.95,3.204 -130.199,59.956c-10.616,8.006 -21.356,20.471 -31.885,28.588c-3.9,-1.784 -263.526,-61.094 -285.396,-58.554c-3.644,0.423 -5.938,1.353 -6.423,1.55c-0.742,0.301 -5.315,2.155 -7.763,6.052c-0.01,0.017 -1.384,3.882 -1.383,3.89c0.81,4.408 0.332,4.702 3.383,8.189c0.576,0.658 3.692,4.22 9.185,6.167c50.814,18.008 191.212,117.666 192.441,118.619c-44.831,50.217 -97.838,113.369 -127.343,138.897c-11.875,-6.162 -93.149,-29.444 -105.623,-34.227c-1.673,-0.641 -1.672,-0.702 -3.424,-0.845c-0.42,-0.034 -2.977,-0.242 -5.052,1.084c-0.016,0.01 -1.58,1.581 -1.582,1.589c-0.657,2.304 -0.978,2.33 -0.321,4.723c0.121,0.439 0.779,2.838 2.979,4.93c10.992,10.454 73.986,72.885 74.934,73.598c-3.963,5.047 -11.322,37.086 -20.487,52.331c-0.538,0.894 -0.955,1.876 -1.234,2.894c-0.121,0.442 -0.867,3.159 0.064,5.826c0.007,0.019 1.295,2.209 1.303,2.213c2.295,1.488 2.262,1.813 4.915,1.958c0.5,0.027 3.208,0.174 5.997,-1.371c15.552,-8.618 48.036,-15.415 53.548,-19.371Zm-124.053,-85.011c-1.758,-0.577 -3.153,-1.058 -4.117,-1.428c1.963,0.752 3.089,1.168 4.117,1.428Z" style="fill:#fff;"/></g><defs><linearGradient id="_Linear1" x1="0" y1="0" x2="1" y2="0" gradientUnits="userSpaceOnUse" gradientTransform="matrix(-211.928249,226.895243,-226.895243,-211.928249,446.678249,313.104757)"><stop offset="0" style="stop-color:#000;stop-opacity:0.45"/><stop offset="1" style="stop-color:#000;stop-opacity:0"/></linearGradient></defs></svg>